<svg  class="smap-icon smap-add-note"  width="1em" height="1em"  fill="currentColor" focusable="false" viewBox="0 0 1024 1024"><path d="M726.656 0a240 240 0 0 1 240 240v210.432a48 48 0 0 1-96 0V240a144 144 0 0 0-144-144H383.744v832h95.808a48 48 0 1 1 0 96H169.344a112 112 0 0 1-112-112V112C57.344 50.176 107.456 0 169.344 0h557.312zM287.744 96h-118.4a16 16 0 0 0-16 16v800c0 8.832 7.168 16 16 16h118.4v-832z m432.256 257.088a48 48 0 1 1 0 96h-160a48 48 0 0 1 0-96h160z m0-161.088a48 48 0 1 1 0 96h-160a48 48 0 0 1 0-96h160z" p-id="2066"></path><path d="M768 512a256 256 0 1 1 0 512 256 256 0 0 1 0-512z m0 96a48 48 0 0 0-48 48v64h-64a48 48 0 1 0 0 96h64v64a48 48 0 1 0 96 0v-64h64a48 48 0 1 0 0-96h-64v-64A48 48 0 0 0 768 608z"></path></svg>