<svg  class="smap-icon smap-ai-discern" viewBox="0 0 1024 1024" width="1em" height="1em" fill="currentColor" focusable="false" ><path d="M788 925.67H237.33c-76.03 0-137.67-61.64-137.67-137.67V237.33c0-76.03 61.64-137.67 137.67-137.67H788c76.03 0 137.67 61.64 137.67 137.67V788c0 76.03-61.64 137.67-137.67 137.67zM364.92 624.52H517.3l31.32 94.65h97.4l-150.3-413H390.6l-153.19 413h96.39l30.85-94.65h0.27z m333.74-318.35v413h89.47v-413h-89.47zM496.13 556.53H384.55l47.79-144.56c3.83-11.29 6.25-23.02 7.26-34.89h2.49c0.74 12.2 2.96 24.27 6.52 35.93l47.52 143.18v0.34z"></path></svg>
