<svg class="smap-icon smap-clear" width="1em" height="1em" fill="currentColor" focusable="false" viewBox="0 0 1024 1024"><path d="M790.464 939.456h-556.8a75.52 75.52 0 0 1-75.392-75.392 74.944 74.944 0 0 1 0.704-10.624v-1.152l44.8-284.928h-5.248a75.84 75.84 0 0 1-75.392-74.176V421.376a75.776 75.776 0 0 1 74.176-75.392H383.36v-133.12a128.832 128.832 0 0 1 126.016-128h2.176a128.96 128.96 0 0 1 128 126.272v135.232h184.704a75.648 75.648 0 0 1 75.392 74.176v71.68a75.648 75.648 0 0 1-74.048 75.52h-6.4l44.8 284.8a75.904 75.904 0 0 1-61.504 86.144h-1.152a62.336 62.336 0 0 1-10.688 0.96z m-372.864-294.4h3.264l1.152 0.832a48.064 48.064 0 0 1 36.544 54.208L434.624 851.2h340.672l-44.8-283.776H293.504l-44.8 283.776h88.64l26.24-166.4a47.808 47.808 0 0 1 47.424-40.448 51.968 51.968 0 0 1 6.592 0.64zM211.904 479.168h600.32v-44.8h-171.904v1.024H383.936v-1.024H211.904z m260.16-266.944v133.824h80.064v-133.12a39.872 39.872 0 0 0-38.4-40h-1.408a40.128 40.128 0 0 0-40.256 39.296z"></path></svg>