<svg className="smap-icon smap-danmaku-setting-icon" width="1em" height="1em"  fill="currentColor" focusable="false" viewBox="-2,-2,28,28"><path d="M15.3468 7C15.6522 7 15.905 7.22505 15.9484 7.51835L15.955 7.60823L15.9549 8.01653L16.2911 8.01726C16.5965 8.01726 16.8493 8.24231 16.8928 8.5356L16.8994 8.62548V12.463C16.8994 12.7989 16.6271 13.0713 16.2911 13.0713L14.4101 13.0707V13.7582L16.2047 13.7588C16.5406 13.7588 16.8129 14.0311 16.8129 14.367C16.8129 14.6724 16.5878 14.9252 16.2946 14.9687L16.2047 14.9753L14.4101 14.9748L14.4104 15.9871C14.4104 16.323 14.1381 16.5953 13.8022 16.5953C13.4968 16.5953 13.244 16.3703 13.2006 16.077L13.194 15.9871L13.1935 14.9748L11.3133 14.9753C10.9773 14.9753 10.705 14.703 10.705 14.367C10.705 14.0617 10.9301 13.8089 11.2234 13.7654L11.3133 13.7588L13.1935 13.7582V13.0707L11.3133 13.0713C11.0079 13.0713 10.7551 12.8462 10.7116 12.5529L10.705 12.463V8.62548C10.705 8.28957 10.9773 8.01726 11.3133 8.01726L11.9315 8.01653L11.932 7.60823C11.932 7.27231 12.2043 7 12.5402 7C12.8456 7 13.0984 7.22505 13.1419 7.51835L13.1485 7.60823L13.1481 8.01653H14.7383L14.7386 7.60823C14.7386 7.27231 15.0109 7 15.3468 7ZM9.40777 7.41055C9.71315 7.41055 9.96596 7.6356 10.0094 7.9289L10.016 8.01878V10.5173C10.016 10.8227 9.79095 11.0755 9.49765 11.119L9.40777 11.1256L7.68831 11.1255V12.2097L9.40777 12.21C9.71315 12.21 9.96596 12.4351 10.0094 12.7284L10.016 12.8183V15.2084C10.016 15.3812 9.94252 15.5458 9.81391 15.6612C9.32173 16.1027 8.42975 16.2805 7.08088 16.2805C6.74497 16.2805 6.47266 16.0082 6.47266 15.6723C6.47266 15.3364 6.74497 15.064 7.08088 15.064C7.86129 15.064 8.42395 14.9934 8.74634 14.8859L8.79911 14.8661V13.4263L7.08088 13.4265C6.77551 13.4265 6.52269 13.2014 6.47925 12.9081L6.47266 12.8183V10.5173C6.47266 10.212 6.69771 9.95916 6.991 9.91571L7.08088 9.90912L8.79911 9.90891V8.62646L7.08088 8.627C6.77551 8.627 6.52269 8.40195 6.47925 8.10866L6.47266 8.01878C6.47266 7.7134 6.69771 7.46059 6.991 7.41715L7.08088 7.41055H9.40777ZM13.1935 11.1524H11.9199L11.9207 11.8539L13.1935 11.8532V11.1524ZM15.6819 11.1524H14.4101V11.8532L15.6827 11.8539L15.6819 11.1524ZM13.1935 9.23227L11.9207 9.233L11.9199 9.93574H13.1935V9.23227ZM15.6827 9.233L14.4101 9.23227V9.93574H15.6819L15.6827 9.233Z" fill="#fff"></path><path fill-rule="evenodd" clip-rule="evenodd" d="M21.1222 16.4966C21.3794 16.4965 21.6164 16.636 21.7412 16.8608L23.2198 19.5243C23.3384 19.738 23.3384 19.9978 23.2197 20.2115L21.7389 22.8767C21.6142 23.1013 21.3775 23.2406 21.1206 23.2407L18.2082 23.2416C17.951 23.2417 17.714 23.1023 17.5892 22.8774L16.1106 20.2139C15.992 20.0002 15.992 19.7404 16.1107 19.5268L17.5915 16.8615C17.7162 16.6369 17.9529 16.4976 18.2099 16.4975L21.1222 16.4966Z" stroke="white" stroke-width="1.925" fill="none"></path><path d="M12.375 21H4.375C2.92525 21 1.75 19.8247 1.75 18.375V5.25C1.75 3.80025 2.92525 2.625 4.375 2.625H19.125C20.5747 2.625 21.75 3.80025 21.75 5.25V13.125" stroke="white" stroke-width="2" stroke-linecap="round" fill="none"></path></svg>