<svg className="smap-icon smap-icon-danmaku-emoji" width="1em" height="1em"  fill="currentColor" focusable="false" viewBox="-2,-2,28,28" ><path fill-rule="evenodd" clip-rule="evenodd" d="M16.904 4.095a47.517 47.517 0 0 0-5.835 4.424c-.669.595-1.332 1.196-1.989 1.802a.75.75 0 0 0 .319 1.277 4.515 4.515 0 0 1 3.123 2.926.75.75 0 0 0 1.264.269c.574-.627 1.136-1.251 1.686-1.875a49.376 49.376 0 0 0 4.417-5.837 2.16 2.16 0 0 0-2.985-2.986zm1.638 1.349c.22.219.256.562.087.822a47.871 47.871 0 0 1-4.282 5.66l-.547.617-.358.398-.032-.058a6.03 6.03 0 0 0-2.245-2.18l-.178-.093.419-.379.66-.59a46.025 46.025 0 0 1 5.65-4.286.661.661 0 0 1 .757.028l.07.06zM7.867 12.95a3.38 3.38 0 0 0-3.38 3.216l-.003.16c0 .652-.117 1.208-.31 1.67a2.513 2.513 0 0 1-.231.45l-.024.032a.75.75 0 0 0 .582 1.222h3.366a3.38 3.38 0 0 0 3.384-3.375 3.38 3.38 0 0 0-3.384-3.375zm0 1.5a1.88 1.88 0 0 1 1.884 1.875l-.004.124a1.88 1.88 0 0 1-1.88 1.751h-2.17l.024-.072c.143-.459.234-.967.257-1.521l.006-.282a1.88 1.88 0 0 1 1.883-1.875z" fill="#fff"></path><path d="M14.287 19.048H19.6" stroke="#fff" stroke-width="2" stroke-linecap="round"></path></svg>