<svg viewBox="0 0 16 16" class="smap-icon smap-digest-icon" width="1em" height="1em" fill="currentColor" focusable="false"><path d="M2.87305 7.23047C1.79297 7.23047 0.96582 6.40332 0.96582 5.13184C0.96582 3.375 2.33984 2.06934 3.88477 2.06934C4.2334 2.06934 4.50684 2.25391 4.50684 2.5752C4.50684 2.83496 4.30176 3.04004 4.03516 3.06055C3.05078 3.1084 2.33301 3.7168 2.12109 4.63965C2.33984 4.33203 2.66797 4.18164 3.07812 4.18164C3.90527 4.18164 4.51367 4.77637 4.51367 5.67188C4.51367 6.6084 3.77539 7.23047 2.87305 7.23047ZM7.13867 7.23047C6.06543 7.23047 5.23828 6.40332 5.23828 5.13184C5.23828 3.375 6.61914 2.06934 8.15723 2.06934C8.5127 2.06934 8.7793 2.25391 8.7793 2.5752C8.7793 2.83496 8.57422 3.04004 8.30078 3.06055C7.32324 3.1084 6.60547 3.7168 6.40039 4.63965C6.6123 4.3252 6.94727 4.18164 7.35059 4.18164C8.17773 4.18164 8.78613 4.77637 8.78613 5.67188C8.78613 6.6084 8.04785 7.23047 7.13867 7.23047ZM10.6045 3.27246C10.2695 3.27246 10.0029 3.00586 10.0029 2.6709C10.0029 2.33594 10.2695 2.06934 10.6045 2.06934H14.4395C14.7744 2.06934 15.0479 2.33594 15.0479 2.6709C15.0479 3.00586 14.7744 3.27246 14.4395 3.27246H10.6045ZM10.6045 6.85449C10.2695 6.85449 10.0029 6.58789 10.0029 6.25293C10.0029 5.91797 10.2695 5.65137 10.6045 5.65137H14.4395C14.7744 5.65137 15.0479 5.91797 15.0479 6.25293C15.0479 6.58789 14.7744 6.85449 14.4395 6.85449H10.6045ZM1.55371 10.4365C1.21875 10.4365 0.952148 10.1699 0.952148 9.83496C0.952148 9.5 1.21875 9.2334 1.55371 9.2334H14.4395C14.7744 9.2334 15.0479 9.5 15.0479 9.83496C15.0479 10.1699 14.7744 10.4365 14.4395 10.4365H1.55371ZM1.55371 14.0117C1.21875 14.0117 0.952148 13.752 0.952148 13.417C0.952148 13.0752 1.21875 12.8154 1.55371 12.8154H14.4395C14.7744 12.8154 15.0479 13.0752 15.0479 13.417C15.0479 13.752 14.7744 14.0117 14.4395 14.0117H1.55371Z"></path></svg>