<svg class="smap-icon smap-drag-handle-icon" width="1em" height="1em" fill="currentColor" focusable="false" viewBox="0 0 1024 1024" ><path d="M512 64l173.888 173.952-45.888 45.888-89.6-89.6v279.296h261.248l-89.6-89.6 45.888-45.888L941.888 512l-173.952 173.888-45.888-45.888 89.6-89.664H550.4v279.36l89.6-89.536 45.888 45.888L512 960l-173.888-173.952 45.888-45.888 89.6 89.664V550.336H194.24L283.776 640l-45.824 45.888L64 512l173.952-173.952 45.888 45.888-89.664 89.6H473.6V194.112L384 283.84l-45.952-45.888L512 64z"></path></svg>