<svg class="smap-icon smap-center-draw" width="1em" height="1em" fill="currentColor" focusable="false" viewBox="0 0 1024 1024" ><path d="M499.2 349.8752c-89.1648 0-162.1248 72.96-162.1248 162.1248s72.96 162.1248 162.1248 162.1248 162.1248-72.96 162.1248-162.1248-72.96-162.1248-162.1248-162.1248z m459.3664 121.6H888.32C869.4016 287.7184 723.4816 141.7984 539.7248 122.88V52.6336c0-14.8736-12.16-27.0336-27.008-27.0336h-27.0336c-14.848 0-27.008 12.16-27.008 27.0336V122.88C274.9184 141.7984 128.9984 287.7184 110.08 471.4752H39.8336c-14.8736 0-27.0336 12.16-27.0336 27.008v27.0336c0 14.848 12.16 27.008 27.0336 27.008H110.08c18.9184 183.7568 164.8384 329.6768 348.5952 348.5952v70.2464c0 14.8736 12.16 27.0336 27.008 27.0336h27.0336c14.848 0 27.008-12.16 27.008-27.0336V901.12c183.7568-18.9184 329.6768-164.8384 348.5952-348.5952h70.2464c14.8736 0 27.0336-12.16 27.0336-27.008v-27.0336c0-14.848-12.16-27.008-27.0336-27.008zM499.2 849.7664c-186.4448 0-337.7664-151.296-337.7664-337.7664 0-186.4448 151.296-337.7664 337.7664-337.7664 186.4448 0 337.7664 151.296 337.7664 337.7664 0 186.4448-151.296 337.7664-337.7664 337.7664z" p-id="2367"></path></svg>