<svg class="smap-icon smap-draw-poly-icon" width="1em" height="1em" fill="currentColor" focusable="false" viewBox="0 0 1024 1024" ><path d="M387.36192 569.184v83.2c0 15.616 10.4 26.016 26.016 26.016h85.76c23.424 0 33.824-28.608 18.24-44.224l-85.824-83.2c-18.208-15.616-44.192-5.216-44.192 18.208z" p-id="2858"></path><path d="M1013.88992 173.92c12.992-10.432 12.992-26.016 2.624-36.416L922.88192 43.84a25.12 25.12 0 0 0-36.416 0l-288.544 286.08-41.6-140.448c23.36-18.208 38.976-44.192 38.976-75.424 0-52-41.6-93.6-93.568-93.6a93.216 93.216 0 0 0-93.6 93.6c0 7.808 0 15.616 2.592 23.424l-280.768 244.448a83.04 83.04 0 0 0-36.384-7.808A93.216 93.216 0 0 0 0.00192 467.744c0 46.816 33.792 83.2 75.392 91.04l85.792 275.616c-15.584 18.24-28.608 41.6-28.608 70.24 0 52 41.6 93.6 93.6 93.6 39.008 0 70.208-23.392 85.792-54.624h337.984c12.992 36.416 46.784 65.024 88.384 65.024 52 0 93.568-41.6 93.568-93.6 0-49.408-38.976-91.04-88.384-93.632l-85.76-291.232 356.16-356.256z m-163.776-46.816l26.016-26.016a25.12 25.12 0 0 1 36.384 0l46.784 46.816a25.152 25.152 0 0 1 0 36.416l-25.984 25.984a25.12 25.12 0 0 1-36.384 0L850.11392 163.52a25.152 25.152 0 0 1 0-36.384z m-384.768 371.84l93.6 93.632c10.4 10.4 23.392 10.4 33.792 0l75.392 260.032c-2.592 5.216-7.808 7.808-10.4 13.024H312.00192c-12.992-28.608-41.6-49.408-72.8-54.624l-88.384-270.432c20.8-18.24 36.384-44.224 36.384-72.832 0-10.4-2.56-18.208-5.184-28.608l278.176-241.824c5.184 2.592 12.992 5.184 20.8 7.808l54.592 189.824-70.208 67.616a25.152 25.152 0 0 0 0 36.384z"></path></svg>