<svg class="smap-icon smap-draw-icon" width="1em" height="1em" fill="currentColor" focusable="false" viewBox="0 0 1024 1024" ><path d="M619.52 324.693333l-14.933333 16.64-98.56-98.56 15.786666-15.786666a69.12 69.12 0 0 1 97.706667 98.133333z m-67.84 68.693334l-206.08 209.066666 2.56-76.8a21.333333 21.333333 0 0 0-21.333333-22.186666H247.893333l227.413334-229.546667 98.133333 97.28z m-250.453333 236.8l-62.72 14.08-4.266667-29.44-29.866667 4.693333 15.786667-72.533333h85.333333z m349.013333-433.493334a112.64 112.64 0 0 0-159.573333 0l-68.266667 68.266667-237.226667 239.786667-45.653333 206.08 205.653333-46.08 282.453334-286.293334 22.613333-22.613333a112.213333 112.213333 0 0 0 0-159.146667zM376.32 828.586667h-8.533333a407.893333 407.893333 0 0 1-193.28-79.36 21.76 21.76 0 1 1 26.88-33.706667 371.626667 371.626667 0 0 0 170.666666 69.973333c26.88 2.56 35.84-13.226667 50.773334-66.133333 13.226667-46.08 29.013333-102.826667 92.16-111.786667 101.973333-14.08 260.693333 102.826667 346.026666 165.12l14.506667 10.666667a21.76 21.76 0 0 1-25.6 35.413333l-14.506667-10.666666c-68.693333-50.773333-229.973333-170.666667-314.453333-157.44-32.853333 4.266667-42.666667 33.28-56.32 80.213333s-27.733333 97.706667-88.32 97.706667z"></path></svg>