
<svg class="smap-icon smap-draw-line" width="1em" height="1em" fill="currentColor" focusable="false" viewBox="0 0 1024 1024" ><path d="M398.49 938.02c-3.19 11.24 8.05 22.43 19.24 19.24l133.01-36.8-115.39-115.39-36.86 132.95z m491.83-530.31c-14.43-14.43-38.48-12.81-54.48 1.62l-56.05 56.05 112.15 112.15 56.05-56.05c16-16 16-40.05 1.57-54.48l-59.24-59.29zM473.83 765.02l108.9 115.34 277.15-270.72-112.14-112.15-273.91 267.53zM947.07 74.99c-16.15-15.08-41.46-14.21-56.54 1.93L733.36 245.24a88.336 88.336 0 0 0-29.22-4.94c-38.7 0-71.6 24.82-83.66 59.41l-313.21 35.53c-14.88-28-44.34-47.07-78.27-47.07-48.92 0-88.58 39.66-88.58 88.58 0 48.73 39.36 88.27 88.02 88.57l65.58 138.75c-18.76 16.24-30.63 40.23-30.63 67 0 16.14 4.32 31.27 11.86 44.3L79.07 887.44c-16.61 14.57-18.26 39.84-3.7 56.45 7.91 9.02 18.97 13.63 30.09 13.63 9.36 0 18.77-3.27 26.36-9.93l214.49-188.12c1.88 0.12 3.76 0.19 5.67 0.19 48.92 0 88.58-39.66 88.58-88.58 0-41.47-28.5-76.29-66.99-85.93l-73.5-155.5a89.23 89.23 0 0 0 8.57-14.05l322.47-36.58c15.97 23.22 42.72 38.45 73.03 38.45 48.92 0 88.58-39.66 88.58-88.58 0-9-1.35-17.69-3.84-25.87l160.13-171.48c15.07-16.16 14.21-41.47-1.94-56.55z" ></path></svg>
