<svg class="smap-icon smap-draw-point-icon" width="1em" height="1em" fill="currentColor" focusable="false" viewBox="0 0 1024 1024"><path d="M357.41 107.769c97.382-56.605 217.08-55.615 313.549 2.592 95.52 59.392 153.574 165.39 153.037 279.414-2.227 113.276-64.478 219.756-142.292 302.07-44.911 47.723-95.153 89.922-149.698 125.736A52.334 52.334 0 0 1 513.849 824a36.551 36.551 0 0 1-17.415-5.286C413.16 764.9 340.103 696.212 280.778 615.95 231.137 548.95 202.934 468.008 200 384.11l0.016-3.424C201.141 267.763 261.001 163.807 357.41 107.769z m195.028 182.723c-39.588-16.834-85.23-7.688-115.616 23.167-30.385 30.855-39.52 77.332-23.14 117.732 16.382 40.4 55.047 66.751 97.944 66.751 28.102 0.202 55.116-11.058 75.023-31.273 19.906-20.214 31.051-47.702 30.952-76.339 0.15-43.712-25.575-83.204-65.163-100.038z" p-id="2248"></path><path d="M289 913.5a223 44.5 0 1 0 446 0 223 44.5 0 1 0-446 0Z"></path></svg>