<svg class="smap-icon smap-explain-icon" viewBox="0 0 1024 1024" fill="currentColor" focusable="false" width="1em" height="1em"><path d="M512 0A512 512 0 0 0 0 512a512 512 0 0 0 512 512 512 512 0 0 0 512-512A512 512 0 0 0 512 0z m311.077 823.077a437.687 437.687 0 0 1-139.85 94.354A435.785 435.785 0 0 1 512 952.027a437.394 437.394 0 0 1-311.077-128.804A437.687 437.687 0 0 1 106.57 683.3 436.663 436.663 0 0 1 71.973 512a437.394 437.394 0 0 1 128.804-311.077A437.687 437.687 0 0 1 340.7 106.57 436.663 436.663 0 0 1 512 71.973a437.394 437.394 0 0 1 311.077 128.804A437.687 437.687 0 0 1 917.43 340.7 436.663 436.663 0 0 1 952.027 512a437.394 437.394 0 0 1-128.95 311.077zM506.88 663.917a36.06 36.06 0 0 1-35.84-39.57c4.827-49.956 41.399-90.258 81.7-130.56 64.513-64.512 65.61-84.992 66.707-106.715 1.316-25.307-7.973-49.737-26.332-69.047-20.918-22.016-50.541-34.596-81.188-34.596h-0.22a107.666 107.666 0 0 0-107.3 107.52 35.986 35.986 0 1 1-72.046 0c0-47.982 18.578-92.892 52.444-126.83a178.25 178.25 0 0 1 126.683-52.663 184.759 184.759 0 0 1 133.851 56.978c32.037 33.792 48.421 77.24 46.08 122.441-2.56 46.3-16.75 82.798-87.771 153.82-35.986 35.986-58.66 62.976-61.001 86.674a35.986 35.986 0 0 1-35.84 32.549z m-44.617 105.326a43.3 43.3 0 1 0 86.601 0 43.3 43.3 0 0 0-86.601 0z"></path></svg>