<svg  class="smap-icon smap-geo-photo-icon" viewBox="0 0 1024 1024" version="1.1"  width="1rem" height="1rem" fill="currentColor" focusable="false"><path d="M787.06455 111.36911c-154.255697-147.822107-398.479338-147.822107-546.301445 0-154.24366 147.816088-154.24366 392.045749-6.421553 539.861837 44.986982 44.993 115.68425 109.262696 212.085784 205.664232l25.710286 25.710286c25.704267 25.710286 64.269696 25.710286 89.973964 0 102.835125-109.256678 179.959964-179.953946 224.952964-224.940928 147.816088-154.249678 154.24366-398.479338 0-546.295427z m-161.592035 37.247416c20.245646 0 36.663638 16.417992 36.663638 36.669656s-16.417992 36.669656-36.663638 36.669656c-20.257683 0-36.669656-16.417992-36.669656-36.669656s16.411973-36.669656 36.669656-36.669656z m73.333294 425.296996H330.014869c-8.413619 0-15.027758-6.61414-15.027758-15.027759 0-8.413619 6.61414-15.027758 15.027758-15.027758h368.79094c8.413619 0 15.027758 6.61414 15.027758 15.027758 0 8.413619-6.61414 15.027758-15.027758 15.027759z m74.542978-75.138792H251.271101c-8.419637 0-15.027758-6.61414-15.027758-15.027758 0-8.419637 6.608121-15.027758 15.027758-15.027759h66.719154L441.829336 240.588573c11.717679-19.234568 39.672801-19.234568 51.39048 0L593.009668 423.635938l1.799479-3.310079 17.134173-48.989168c11.717679-19.234568 39.672801-19.234568 51.396498 0l46.28694 97.081606h63.421112c8.413619 0 15.322656 6.909037 15.322657 15.328675 0 8.413619-6.608121 15.027758-15.02174 15.027758zM351.632694 959.730304h321.348481c19.282714 0 32.131839 12.849125 32.131839 32.137857 0 19.282714-12.849125 32.131839-32.131839 32.131839H351.632694c-19.288733 0-32.137857-12.849125-32.137857-32.131839s12.855143-32.137857 32.137857-32.137857z" ></path></svg>