<svg class="smap-icon smap-highlighter-icon" width="1em" height="1em" fill="currentColor" focusable="false" viewBox="0 0 1024 1024"><path d="M968.533333 482.133333c-17.066667-17.066667-42.666667-17.066667-59.733333 0l-196.266667 196.266667c-17.066667 17.066667-42.666667 17.066667-59.733333 0l-221.866667-221.866667c-17.066667-17.066667-17.066667-42.666667 0-59.733333l196.266667-196.266667c17.066667-17.066667 17.066667-42.666667 0-59.733333-17.066667-17.066667-42.666667-17.066667-59.733333 0L371.2 337.066667c-29.866667 29.866667-42.666667 76.8-34.133333 119.466666l-238.933334 238.933334c-8.533333 8.533333-12.8 17.066667-12.8 29.866666v128c0 25.6 17.066667 42.666667 42.666667 42.666667h384c12.8 0 21.333333-4.266667 29.866667-12.8l110.933333-110.933333c8.533333 0 17.066667 4.266667 29.866667 4.266666 34.133333 0 64-12.8 89.6-38.4l196.266666-196.266666c17.066667-17.066667 17.066667-42.666667 0-59.733334zM494.933333 810.666667H170.666667v-68.266667l213.333333-213.333333 196.266667 196.266666-85.333334 85.333334z"></path></svg>