<svg className="smap-icon smap-location-icon" width="1em" height="1em" viewBox="0 0 1024 1024" version="1.1" fill="currentColor" focusable="false"><path d="M512 0C278.8 0 89 189.7 89 423c0 228.6 391.5 580.5 408.1 595.4 4.2 3.8 9.5 5.6 14.8 5.6s10.6-1.9 14.8-5.6C543.5 1003.5 935 651.6 935 423 935 189.7 745.2 0 512 0z m0 971.5C440.3 904.8 133.6 608.4 133.6 423c0-208.7 169.8-378.4 378.4-378.4S890.4 214.3 890.4 423c0 185.3-306.7 481.8-378.4 548.5z" ></path><path d="M512 200.3c-122.7 0-222.6 99.9-222.6 222.6S389.3 645.6 512 645.6 734.6 545.7 734.6 423 634.7 200.3 512 200.3z m0 400.7c-98.2 0-178.1-79.9-178.1-178.1s79.9-178 178.1-178S690.1 324.8 690.1 423 610.2 601 512 601z" ></path></svg>