<svg className="smap-icon smap-logo-icon" width="1em" height="1em" viewBox="0 0 1024 1024" version="1.1" fill="currentColor" focusable="false"><path d="M667.648 87.04c144.384 0 261.632 117.248 261.632 261.632v326.656c0 144.384-117.248 261.632-261.632 261.632H340.48c-144.384 0-261.632-117.248-261.632-261.632V348.672C79.36 204.288 196.096 87.04 340.48 87.04h327.168z m-41.472 196.096H388.096C351.744 283.136 322.56 312.32 322.56 348.672v13.312h-19.968c-12.8 0-22.528 10.24-22.528 22.528 0 12.8 10.24 22.528 22.528 22.528H322.56V491.52h-19.968c-12.8 0-22.528 10.24-22.528 22.528s10.24 22.528 22.528 22.528H322.56V614.4h-19.968c-12.8 0-22.528 10.24-22.528 22.528 0 12.8 10.24 22.528 22.528 22.528H322.56v15.872c0 36.352 29.184 65.536 65.536 65.536h237.568c36.352 0 65.536-29.184 65.536-65.536V348.672c0-36.352-29.184-65.536-65.024-65.536zM593.92 599.04c9.216 0 16.384 7.168 16.384 16.384s-7.168 16.384-16.384 16.384H419.84l-3.072-0.512c-7.68-1.536-13.312-8.192-13.312-15.872 0-9.216 7.168-16.384 16.384-16.384h174.08z m-38.912-223.744c11.264-8.704 27.648-7.68 37.888 2.56s11.264 26.624 2.56 37.888l-2.56 3.072-137.728 137.728-2.56 2.048c-1.536 1.024-3.584 2.048-5.632 2.56l-3.072 0.512-28.16 4.096h-3.072c-4.608-0.512-7.68-4.096-8.192-8.704v-2.048l4.096-28.672 0.512-3.072c0.512-2.048 1.536-4.096 2.56-5.632l2.048-2.56 137.728-137.728 3.584-2.048z"></path></svg>