<svg width="1em" height="1em" viewBox="0 0 40 40" class="smap-icon smap-outline-1-icon" fill="currentColor" focusable="false"><g  stroke="none" stroke-width="1" fill-rule="evenodd"><path d="M21.3145004,4.44727728 L33.1621545,13.6073003 C33.9500087,14.2164304 34.2161727,15.2870339 33.805283,16.1941852 L28.2765994,28.4002633 C27.9284601,29.1688758 27.1627512,29.6626449 26.3189705,29.6626449 L22.4774872,29.6624991 C22.4777021,29.7196533 22.4687289,29.7778161 22.4495897,29.8350269 L22.4495897,29.8350269 L20.5094908,35.6343555 C20.4559694,35.7943413 20.3304113,35.9198986 20.1704251,35.9734189 C19.8890274,36.0675553 19.5845969,35.9157499 19.4904605,35.6343522 L19.4904605,35.6343522 L17.550404,29.8350236 C17.5320222,29.7800755 17.5226497,29.7225158 17.5226497,29.6645746 C17.5226497,29.6638925 17.522651,29.6632107 17.5226535,29.6625292 L13.6810295,29.6626449 C12.8372488,29.6626449 12.0715399,29.1688758 11.7234006,28.4002633 L6.19471705,16.1941852 C5.78382731,15.2870339 6.04999129,14.2164304 6.83784552,13.6073003 L18.6854996,4.44727728 C19.4596369,3.84875237 20.5403631,3.84875237 21.3145004,4.44727728 Z" id="形状结合"></path></g></svg>