<svg class="smap-icon smap-marker-delete" fill="currentColor" focusable="false" width="48" height="48" viewBox="0 0 48 48"><path d="M36 12c2.21 0 4 1.79 4 4v20c0 4.418-3.582 8-8 8H16c-4.418 0-8-3.582-8-8V16c0-2.21 1.79-4 4-4h24zm0 4H12v20c0 2.142 1.684 3.89 3.8 3.995L16 40h16c2.142 0 3.89-1.684 3.995-3.8L36 36V16zm-19 4c1.105 0 2 .895 2 2v12c0 1.105-.895 2-2 2s-2-.895-2-2V22c0-1.105.895-2 2-2zm7 0c1.105 0 2 .895 2 2v12c0 1.105-.895 2-2 2s-2-.895-2-2V22c0-1.105.895-2 2-2zm7 0c1.105 0 2 .895 2 2v12c0 1.105-.895 2-2 2s-2-.895-2-2V22c0-1.105.895-2 2-2zM27 4c1.105 0 2 .895 2 2h11c1.105 0 2 .895 2 2 0 1.054-.816 1.918-1.85 1.995L40 10H8c-1.105 0-2-.895-2-2 0-1.054.816-1.918 1.85-1.995L8 6h11c0-1.105.895-2 2-2h6z"></path></svg>