<svg class="smap-icon smap-marker-edit-icon" fill="currentColor" focusable="false" width="48" height="48" viewBox="0 0 48 48"><path d="M20.383 3c1.105 0 2 .895 2 2s-.895 2-2 2c-.277 0-.544 0-.802.004l-.743.012-.693.02-.643.03-.597.04c-1.826.14-3.024.427-4.13.92l-.346.164-.344.176c-1.607.86-2.856 2.11-3.716 3.716l-.176.344-.162.347c-.494 1.105-.78 2.303-.92 4.13l-.04.597-.03.643-.02.693-.013.745-.004.804v7.234c0 .277 0 .544.005.802l.012.744.02.693.03.643.04.598c.14 1.826.427 3.024.92 4.13l.164.346.177.344c.86 1.607 2.11 2.856 3.716 3.716l.344.176.347.163c1.105.494 2.303.78 4.13.92l.597.04.644.03.693.02.745.013.803.004h7.234c.276 0 .543 0 .8-.004l.745-.012.693-.02.643-.03.6-.04c1.825-.14 3.023-.427 4.13-.92l.345-.164.344-.176c1.606-.86 2.855-2.11 3.715-3.716l.176-.344.164-.347c.494-1.105.78-2.303.92-4.13l.04-.597.03-.643.02-.693.013-.745.003-.396V24c0-1.105.895-2 2-2 1.054 0 1.918.816 1.995 1.85L45 24v3.617c0 .314-.002.617-.005.912l-.017.854-.028.803-.04.755c-.192 3.05-.715 4.928-1.75 6.86-1.23 2.305-3.052 4.126-5.356 5.358-1.933 1.035-3.812 1.558-6.86 1.75l-.756.04-.803.028-.856.017-.914.005h-7.234l-.912-.005-.855-.017-.803-.028-.755-.04c-3.05-.192-4.928-.715-6.86-1.75-2.305-1.23-4.126-3.052-5.358-5.356-1.036-1.933-1.56-3.812-1.75-6.86l-.04-.756-.03-.803-.016-.856L3 27.615v-7.234l.005-.912.017-.855.028-.803.04-.755c.192-3.05.715-4.928 1.75-6.86 1.23-2.307 3.05-4.127 5.355-5.36 1.933-1.034 3.812-1.557 6.86-1.75l.756-.04.804-.027.856-.017.913-.005zm14.71 3.95l5.656 5.655L21.444 31.91c-.32.32-.742.523-1.194.573l-3.18.354c-1.098.122-2.087-.67-2.21-1.767-.015-.147-.015-.295 0-.442l.354-3.182c.05-.45.253-.872.574-1.193L35.09 6.95zm7.07-2.83l1.414 1.416c1.172 1.17 1.172 3.07 0 4.242l-.707.706-5.657-5.656.707-.707c1.172-1.17 3.07-1.17 4.243 0z" fill-rule="evenodd"></path></svg>