<svg width="1em" height="1em" viewBox="0 0 40 40" class="smap-icon smap-outline-1-icon" fill="currentColor" focusable="false"><g stroke="none" stroke-width="1" fill-rule="evenodd"><g id="形状结合"><path d="M20,4 C27.1797017,4 33,9.70852497 33,16.7503474 C33,22.7828 28.7286718,27.8367888 22.9904709,29.1617155 L23.1170361,29.1296952 C21.9946341,29.3713859 21.1908411,30.3604222 21.1837499,31.5085296 L21.1818182,31.8212914 L21.1818182,33.8181818 C21.1818182,34.470882 20.6527002,35 20,35 C19.3472998,35 18.8181818,34.470882 18.8181818,33.8181818 L18.8181818,31.8212914 L18.8141604,31.5032946 C18.7996571,30.356437 17.9945725,29.3717677 16.8734597,29.1296952 L16.8734597,29.1296952 L16.6879506,29.0831781 C11.1124729,27.6466998 7,22.6695604 7,16.7503474 C7,9.70852497 12.8202983,4 20,4 Z" id="path-1"></path></g></g></svg>