<svg class="smap-icon smap-summarize-icon" viewBox="0 0 1024 1024" fill="currentColor" focusable="false" width="1em" height="1em"> class="icon" viewBox="0 0 1024 1024" version="1.1" p-id="1961" xmlns:xlink="http://www.w3.org/1999/xlink" width="256" height="256"><path d="M838.144 137.216H194.56c-70.656 0-128 57.344-128 128v491.52c0 70.656 57.344 128 128 128h643.584c70.656 0 128-57.856 128-128v-491.52c0-70.144-57.856-128-128-128zM445.44 737.792H253.952c-27.136 0-50.688-19.968-53.248-46.592-3.072-30.72 21.504-57.344 51.712-57.344h190.976c27.136 0 50.688 19.968 53.248 46.592 3.072 31.232-20.992 57.344-51.2 57.344z m0-174.592H253.952c-27.136 0-50.688-19.968-53.248-46.592-3.072-30.72 21.504-57.344 51.712-57.344h190.976c27.136 0 50.688 19.968 53.248 46.592 3.072 30.72-20.992 57.344-51.2 57.344z m0-175.104H253.952c-27.136 0-50.688-19.968-53.248-46.592-3.072-30.72 21.504-57.344 51.712-57.344h190.976c27.136 0 50.688 19.968 53.248 46.592 3.072 31.232-20.992 57.344-51.2 57.344z m219.648 316.928c0 26.624-22.528 48.128-49.664 46.592-24.576-1.536-43.008-23.552-43.008-48.128V318.464c0-24.576 18.432-46.08 43.008-48.128 27.136-2.048 49.664 19.456 49.664 46.592v388.096z m171.008-13.312c0 26.624-22.528 48.128-49.664 46.592-24.576-1.536-43.008-23.552-43.008-48.128v-6.144c0-25.6 18.432-47.616 43.008-49.152 27.136-2.048 49.664 19.456 49.664 46.592v10.24z m0-175.104c0 26.624-22.528 48.128-49.664 46.592-24.576-1.536-43.008-23.552-43.008-48.128v-6.144c0-25.6 18.432-47.616 43.008-49.152 27.136-2.048 49.664 19.456 49.664 46.592v10.24z m0-175.104c0 26.624-22.528 48.128-49.664 46.592-24.576-1.536-43.008-23.552-43.008-48.128v-6.144c0-25.6 18.432-47.616 43.008-49.152 27.136-2.048 49.664 19.456 49.664 46.592v10.24z"></path></svg>