<svg className="smap-icon smap-theme-icon" width="1em" height="1em" viewBox="0 0 1024 1024" version="1.1" fill="currentColor" focusable="false">
  <path
    d="M798.08 512.256a82.773333 82.773333 0 1 1 0.085333-165.589333 82.773333 82.773333 0 0 1-0.085333 165.589333zM642.474667 311.04a82.773333 82.773333 0 1 1 0.042666-165.589333 82.773333 82.773333 0 0 1 0 165.589333z m-262.101334 0a82.773333 82.773333 0 1 1 0.042667-165.589333 82.773333 82.773333 0 0 1-0.042667 165.589333z m-153.941333 201.258667a82.773333 82.773333 0 1 1 0-165.589334 82.773333 82.773333 0 0 1 0 165.589334z m286.933333-469.333334C169.898667 42.922667 42.666667 342.741333 42.666667 510.890667c0 168.106667 122.24 470.698667 460.501333 470.698666 0 0 82.773333 1.365333 82.773333-74.24 0-75.648-37.802667-51.626667-37.802666-106.026666s37.802667-78.677333 55.168-78.677334c17.365333 0 137.941333 9.088 204.16-16.853333A271.914667 271.914667 0 0 0 981.333333 459.264c2.474667-122.581333-124.714667-416.341333-467.925333-416.341333z"
  />
</svg>